#!OML:ASF E:/inclinewalkrobotboard/Project1/Captureday1/Session1/subject1.ASF
:FULLY-SPECIFIED
:DEGREES
201
root 0 0 0 1.0531704461660234 -3.679134118438035 1.8629921886938776
lowerback 11.92476832293462 0.8571868032544067 -0.058404089803174575
upperback -4.224401895760241 1.0869575690670044 -0.5566236696900162
thorax -11.2981367267314 0.4962795980093352 -0.8003052170238522
lowerneck -5.667600656694478 1.446208445669404 4.5657007666598295
upperneck 18.081214293686465 2.8824868363433325 -8.318930831027734
head 6.5885940727040255 1.0476618801014053 -3.221696875463944
rclavicle -8.975413745241687E-16 -3.4399059200026863E-16
rhumerus 20.16018771584646 14.709877511672161 -48.1400337136177
rradius 72.54508119620519
rwrist 26.737051800422943
rhand -34.7564757526084 -57.393929909697974
rfingers 7.125020000000038
rthumb -7.917748335634906 -87.30868230883009
lclavicle 9.018290847437262E-16 -1.7504292359627914E-15
lhumerus 20.851281858400476 -12.751601781056806 45.28179873377609
lradius 69.9460460905609
lwrist -22.27545941789301
lhand -44.774901173666265 -69.7252159632818
lfingers 7.125020000000029
lthumb -17.566291277630945 -40.52699806271636
rfemur -24.894427913647984 -2.2122650295914417 17.208277553936785
rtibia 54.048656570833515
rfoot -29.079563914172844 -16.732975148786586
rtoes -17.672089937733357
lfemur -26.67715572142165 2.4058579528553183 -18.294784102899087
ltibia 54.16513019220716
lfoot -31.06162557625934 -3.528369403875181
ltoes -19.631928477123253
202
root 0 0 0 1.0530336544993815 -3.679374326708742 1.8629623800394315
lowerback 11.924769187330483 0.8571625548374764 -0.05834773188925499
upperback -4.2243178082548 1.086936428653655 -0.5565731105028989
thorax -11.298040335161335 0.496268414002181 -0.8002763576635458
lowerneck -5.667108323907197 1.4461376531713237 4.565751892505729
upperneck 18.08091132602756 2.8824090566096006 -8.31913044701357
head 6.588412612993541 1.0476304220765704 -3.2217754268326826
rclavicle -8.970116725416852E-16 -3.4332011881499376E-16
rhumerus 20.160209204911098 14.709949395089499 -48.14002071793135
rradius 72.5451103502884
rwrist 26.736994282662778
rhand -34.75632318683844 -57.39366612659444
rfingers 7.125020000000038
rthumb -7.91760522633129 -87.30843467477578
lclavicle 9.018185593728065E-16 -1.7498713231128052E-15
lhumerus 20.8513176701235 -12.751757696189145 45.28167632591303
lradius 69.9461945312362
lwrist -22.275508977295893
lhand -44.774833498661984 -69.72465526518724
lfingers 7.125020000000029
lthumb -17.566227674839038 -40.5264432047171
rfemur -24.894398223433342 -2.212288845360291 17.20836039116831
rtibia 54.048711572177595
rfoot -29.07947457687898 -16.732927497098466
rtoes -17.671998742781273
lfemur -26.677158357027565 2.4058494127390504 -18.294754334795336
ltibia 54.166072333849044
lfoot -31.061186805624594 -3.5287811063512424
ltoes -19.631616059555853
203
root 0 0 0 1.0528087870520513 -3.6797879674121825 1.862907312952465
lowerback 11.924765631135637 0.8571220418310209 -0.058255439753232635
upperback -4.22417563739217 1.0869011611901738 -0.556487361061448
thorax -11.2978746345184 0.49624983855381427 -0.8002254461958973
lowerneck -5.666310609286571 1.4460228788415113 4.565832128597581
upperneck 18.080418836876948 2.8822845398041927 -8.319452579269713
head 6.588118233837194 1.0475800862692064 -3.2219016772681552
rclavicle -8.961457173076707E-16 -3.4378332096820304E-16
rhumerus 20.16051637059553 14.710289833385485 -48.139872200601246
rradius 72.54531542436186
rwrist 26.736934076853675
rhand -34.755827228976464 -57.393050132513146
rfingers 7.125020000000038
rthumb -7.9171316078640555 -87.30780837758769
lclavicle 9.029907434849752E-16 -1.7502185971328134E-15
lhumerus 20.851508669571345 -12.75206178458206 45.281326822442615
lradius 69.94641871241883
lwrist -22.275573523462096
lhand -44.774674152442586 -69.72372395542004
lfingers 7.125020000000029
lthumb -17.56607594410783 -40.52549348541826
rfemur -24.89441415341088 -2.212288143939661 17.20838275219799
rtibia 54.048782170754635
rfoot -29.079463332150354 -16.732905083997952
rtoes -17.67188129250695
lfemur -26.67702129342907 2.4059523633976996 -18.294748003861923
ltibia 54.166258757289015
lfoot -31.060946913109024 -3.528773521670732
ltoes -19.631700105613945
204
root 0 0 0 1.053287109445227 -3.678951685211217 1.8630062412954858
lowerback 11.924770764506226 0.857203516489783 -0.05845788496997445
upperback -4.224478313614762 1.0869715120198162 -0.5566614580956651
thorax -11.29822574320514 0.4962863870355786 -0.8003204766664324
lowerneck -5.667982462429617 1.4462568096211563 4.565621312282143
upperneck 18.08146646189664 2.882533823307333 -8.318723385019279
head 6.588741865354556 1.047681686269616 -3.2216121586174653
rclavicle -8.971343577397852E-16 -3.4066081642249454E-16
rhumerus 20.161899436524514 14.711448970237676 -48.139722760022494
rradius 72.5465275036612
rwrist 26.737105065062448
rhand -34.75554439600853 -57.39366185780031
rfingers 7.125020000000038
rthumb -7.916844222007388 -87.30862269670521
lclavicle 8.975536422746677E-16 -1.7417915949728146E-15
lhumerus 20.85204004424922 -12.753625746668968 45.28335347036923
lradius 69.9478205714615
lwrist -22.27377523211889
lhand -44.77544825751477 -69.72572168489455
lfingers 7.125020000000029
lthumb -17.566817427345022 -40.52800310974912
rfemur -24.894058579253688 -2.2123299609196643 17.2080973693421
rtibia 54.048251619079394
rfoot -29.078207653077833 -16.733599228952002
rtoes -17.672374278390542
lfemur -26.680282115105907 2.4062581500744415 -18.294533988864035
ltibia 54.16492210697288
lfoot -31.06210477257632 -3.526015673571825
ltoes -19.631446774976006
205
root 0 0 0 1.0538155720564202 -3.67790663210831 1.8631835436372879
lowerback 11.924823587193869 0.8573109743243571 -0.05856702114299675
upperback -4.224747803465555 1.0870773680007162 -0.55686777876608
thorax -11.298551938484739 0.49634046954678207 -0.800506429389747
lowerneck -5.669503649668384 1.446424251577334 4.565545672480336
upperneck 18.082308844470347 2.882679959208178 -8.318199088007894
head 6.589272477489339 1.0477402627246395 -3.221424948129876
rclavicle -8.973898826237535E-16 -3.451136215353061E-16
rhumerus 20.15996861104896 14.709127948126753 -48.13950114522555
rradius 72.54486258581412
rwrist 26.737498501953453
rhand -34.75699529200119 -57.39498278977463
rfingers 7.125020000000038
rthumb -7.918235664074144 -87.31001460058822
lclavicle 9.026669993634611E-16 -1.7480616445840884E-15
lhumerus 20.85130297205032 -12.750631662995751 45.28137076750862
lradius 69.94569773973011
lwrist -22.275902923533728
lhand -44.77484759213944 -69.72620570955482
lfingers 7.1250200000000286
lthumb -17.566103664837428 -40.52823987682496
rfemur -24.894493512070916 -2.2122618266396854 17.20810774933639
rtibia 54.049171338490446
rfoot -29.079188201062447 -16.73342342834747
rtoes -17.672166291150646
lfemur -26.675103193790214 2.4054776086248917 -18.29494573287851
ltibia 54.16321580827733
lfoot -31.064197571029602 -3.526347879648451
ltoes -19.636113023158067
